<svg preserveAspectRatio="none" width="100%" height="100%" overflow="visible" style="display: block;" viewBox="0 0 9.52226 11.1958" fill="none" xmlns="http://www.w3.org/2000/svg">
<path id="Vector" d="M9.02411 9.66825L8.88999 8.14066C8.85167 6.99981 8.41101 6.26503 7.56799 5.82029C8.62177 5.37555 9.15823 4.5054 9.15823 3.22919C9.15823 3.01649 9.13907 2.82313 9.10075 2.62976L0.881331 0H0V11.1958H2.54821V7.03848H4.92399C5.40298 7.03848 5.767 7.17384 5.93944 7.34787C6.11187 7.56057 6.24599 7.96663 6.34178 8.48872L6.43758 9.66825C6.4759 10.403 6.61002 10.9445 6.83994 11.1958H9.52226C9.25403 10.8864 9.06243 10.3644 9.02411 9.66825ZM4.98147 4.93081H2.56736V2.18502H4.90482C5.95859 2.18502 6.53338 2.66844 6.53338 3.53858C6.51422 4.5054 5.99692 4.93081 4.98147 4.93081Z" fill="var(--fill-0, #FCFAF8)"/>
</svg>
