<svg preserveAspectRatio="none" width="100%" height="100%" overflow="visible" style="display: block;" viewBox="0 0 22.4166 18.099" fill="none" xmlns="http://www.w3.org/2000/svg">
<path id="Vector" d="M22.4166 7.28986C22.4166 10.3064 21.3245 12.8394 19.1978 14.9471C17.0136 17.0548 14.3696 18.099 11.2083 18.099C8.04698 18.099 5.40297 17.0548 3.25711 14.9471C1.05377 12.8394 0 10.3064 0 7.28986C0 4.46673 0.919659 2.011 2.85477 0L5.4413 0.83147C5.28802 0.947489 5.1539 1.08284 5.01979 1.2182C3.35291 2.84247 2.50989 4.85346 2.50989 7.3092C2.50989 9.72626 3.33375 11.7373 5.01979 13.3035C6.68666 14.9665 8.75588 15.7592 11.2083 15.7592C13.7182 15.7592 15.7874 14.9664 17.4543 13.3615C19.0828 11.7373 19.9067 9.72626 19.9067 7.32853C19.9067 6.67109 19.8492 6.03299 19.7151 5.43356L22.3591 6.28436C22.3974 6.59374 22.4166 6.9418 22.4166 7.28986Z" fill="var(--fill-0, #FCFAF8)"/>
</svg>
